<?xml version="1.0" encoding="UTF-8" standalone="no"?>
<!DOCTYPE svg PUBLIC "-//W3C//DTD SVG 1.1//EN" "http://www.w3.org/Graphics/SVG/1.1/DTD/svg11.dtd">
<svg width="100%" height="100%" viewBox="0 0 260 101" version="1.1" xmlns="http://www.w3.org/2000/svg" xmlns:xlink="http://www.w3.org/1999/xlink" xml:space="preserve" xmlns:serif="http://www.serif.com/" style="fill-rule:evenodd;clip-rule:evenodd;stroke-linejoin:round;stroke-miterlimit:2;">
    <g id="Artboard2" transform="matrix(0.222412,0,0,0.230584,41.5911,208.91)">
        <rect x="-187" y="-906" width="1169" height="434" style="fill:none;"/>
        <g transform="matrix(1.07643,0,0,1.03828,-620.355,-1567.74)">
            <g transform="matrix(308.742,-43.8583,0,301.564,405.192,965.322)">
                <path d="M0.37,-0.138C0.37,-0.099 0.357,-0.067 0.33,-0.042C0.301,-0.014 0.261,0 0.211,0L0.017,0L0.017,-0.7L0.21,-0.7C0.26,-0.7 0.3,-0.686 0.329,-0.659C0.356,-0.634 0.37,-0.601 0.37,-0.562L0.37,-0.138ZM0.215,-0.127L0.215,-0.573C0.215,-0.59 0.21,-0.601 0.2,-0.606C0.195,-0.609 0.185,-0.61 0.171,-0.61L0.171,-0.09C0.186,-0.09 0.196,-0.091 0.2,-0.093C0.21,-0.098 0.215,-0.11 0.215,-0.127Z" style="fill-rule:nonzero;"/>
            </g>
            <g transform="matrix(308.742,-43.8583,0,301.564,533.576,948.504)">
                <path d="M0.318,0L0.017,0L0.017,-0.7L0.316,-0.7L0.316,-0.61L0.171,-0.61L0.171,-0.421L0.302,-0.421L0.302,-0.336L0.171,-0.336L0.171,-0.09L0.318,-0.09L0.318,0Z" style="fill-rule:nonzero;"/>
            </g>
            <g transform="matrix(308.742,-43.8583,0,301.564,644.671,934.144)">
                <path d="M0.41,-0.7L0.316,0L0.098,0L0.004,-0.7L0.154,-0.7L0.207,-0.211L0.26,-0.7L0.41,-0.7Z" style="fill-rule:nonzero;"/>
            </g>
            <g transform="matrix(308.742,-43.8583,0,301.564,782.626,915.967)">
                <path d="M0.318,0L0.017,0L0.017,-0.7L0.316,-0.7L0.316,-0.61L0.171,-0.61L0.171,-0.421L0.302,-0.421L0.302,-0.336L0.171,-0.336L0.171,-0.09L0.318,-0.09L0.318,0Z" style="fill-rule:nonzero;"/>
            </g>
            <g transform="matrix(308.742,-43.8583,0,301.564,893.72,901.606)">
                <path d="M0.37,-0.138C0.37,-0.099 0.357,-0.067 0.33,-0.042C0.301,-0.014 0.261,0 0.211,0L0.017,0L0.017,-0.7L0.21,-0.7C0.26,-0.7 0.3,-0.686 0.329,-0.659C0.356,-0.634 0.37,-0.601 0.37,-0.562L0.37,-0.138ZM0.215,-0.127L0.215,-0.573C0.215,-0.59 0.21,-0.601 0.2,-0.606C0.195,-0.609 0.185,-0.61 0.171,-0.61L0.171,-0.09C0.186,-0.09 0.196,-0.091 0.2,-0.093C0.21,-0.098 0.215,-0.11 0.215,-0.127Z" style="fill-rule:nonzero;"/>
            </g>
            <g transform="matrix(308.742,-43.8583,0,301.564,1018.97,884.808)">
                <path d="M0.376,-0.119C0.376,-0.078 0.359,-0.047 0.326,-0.025C0.292,-0.003 0.249,0.008 0.197,0.008C0.145,0.008 0.103,-0.002 0.07,-0.023C0.035,-0.046 0.017,-0.077 0.017,-0.118L0.017,-0.7L0.171,-0.7L0.171,-0.111C0.171,-0.104 0.173,-0.099 0.178,-0.096C0.182,-0.092 0.188,-0.09 0.197,-0.09C0.206,-0.09 0.212,-0.092 0.216,-0.096C0.22,-0.099 0.222,-0.104 0.222,-0.111L0.222,-0.7L0.376,-0.7L0.376,-0.119Z" style="fill-rule:nonzero;"/>
            </g>
            <g transform="matrix(308.742,-43.8583,0,301.564,1150.13,867.596)">
                <path d="M0.368,-0.382C0.368,-0.339 0.358,-0.31 0.338,-0.294C0.318,-0.277 0.302,-0.267 0.29,-0.263C0.277,-0.258 0.236,-0.257 0.167,-0.258L0.167,0L0.017,0L0.017,-0.7L0.167,-0.7C0.233,-0.7 0.278,-0.695 0.302,-0.686C0.346,-0.669 0.368,-0.633 0.368,-0.576L0.368,-0.382ZM0.218,-0.395L0.218,-0.563C0.218,-0.58 0.212,-0.591 0.2,-0.596C0.193,-0.599 0.182,-0.6 0.167,-0.6L0.167,-0.358C0.184,-0.358 0.194,-0.359 0.199,-0.361C0.212,-0.366 0.218,-0.378 0.218,-0.395Z" style="fill-rule:nonzero;"/>
            </g>
            <g transform="matrix(154.371,-21.9291,0,150.782,1249.28,850.955)">
                <rect x="0.018" y="-0.102" width="0.127" height="0.102" style="fill-rule:nonzero;"/>
            </g>
            <g transform="matrix(154.371,-21.9291,0,150.782,1272.01,847.584)">
                <path d="M0.354,-0.102C0.354,-0.075 0.341,-0.05 0.314,-0.029C0.283,-0.004 0.244,0.008 0.195,0.008C0.143,0.008 0.101,-0.002 0.069,-0.023C0.034,-0.046 0.017,-0.077 0.017,-0.118L0.017,-0.569C0.017,-0.614 0.03,-0.647 0.055,-0.668C0.084,-0.693 0.131,-0.705 0.195,-0.705C0.25,-0.705 0.292,-0.693 0.319,-0.668C0.342,-0.647 0.354,-0.618 0.354,-0.581L0.354,-0.454L0.214,-0.454L0.214,-0.593C0.214,-0.599 0.212,-0.603 0.209,-0.606C0.206,-0.609 0.2,-0.61 0.193,-0.61C0.186,-0.61 0.18,-0.609 0.177,-0.606C0.173,-0.603 0.171,-0.599 0.171,-0.593L0.171,-0.107C0.171,-0.102 0.173,-0.097 0.178,-0.095C0.182,-0.091 0.187,-0.09 0.193,-0.09C0.2,-0.09 0.206,-0.091 0.209,-0.095C0.212,-0.097 0.214,-0.102 0.214,-0.107L0.214,-0.28L0.354,-0.28L0.354,-0.102Z" style="fill-rule:nonzero;"/>
            </g>
            <g transform="matrix(154.371,-21.9291,0,150.782,1329.13,839.47)">
                <path d="M0.368,-0.119C0.368,-0.078 0.352,-0.047 0.32,-0.025C0.287,-0.003 0.245,0.008 0.193,0.008C0.141,0.008 0.099,-0.003 0.066,-0.024C0.033,-0.045 0.017,-0.077 0.017,-0.118L0.017,-0.569C0.017,-0.614 0.03,-0.647 0.055,-0.668C0.084,-0.693 0.13,-0.705 0.194,-0.705C0.253,-0.705 0.296,-0.693 0.325,-0.67C0.354,-0.647 0.368,-0.613 0.368,-0.57L0.368,-0.119ZM0.218,-0.111L0.218,-0.588C0.218,-0.595 0.216,-0.601 0.212,-0.604C0.208,-0.607 0.202,-0.609 0.193,-0.609C0.184,-0.609 0.178,-0.607 0.174,-0.604C0.169,-0.601 0.167,-0.595 0.167,-0.588L0.167,-0.111C0.167,-0.104 0.169,-0.099 0.174,-0.096C0.178,-0.092 0.184,-0.09 0.193,-0.09C0.202,-0.09 0.208,-0.092 0.212,-0.096C0.216,-0.099 0.218,-0.104 0.218,-0.111Z" style="fill-rule:nonzero;"/>
            </g>
            <g transform="matrix(154.371,-21.9291,0,150.782,1388.09,831.093)">
                <path d="M0.553,0L0.416,0L0.416,-0.393L0.336,0L0.23,0L0.138,-0.393L0.138,0L0.018,0L0.018,-0.7L0.216,-0.7L0.286,-0.337L0.347,-0.7L0.553,-0.7L0.553,0Z" style="fill-rule:nonzero;"/>
            </g>
        </g>
        <g transform="matrix(0.722356,-0.092648,0,0.559628,-480.844,-1101.8)">
            <g transform="matrix(246.219,0,0,166.452,413.812,1166.15)">
                <path d="M0.345,0L0.222,0L0.222,-0.022C0.215,-0.009 0.205,-0.001 0.192,0.003C0.178,0.006 0.158,0.008 0.133,0.008C0.092,0.008 0.062,0.001 0.045,-0.014C0.028,-0.029 0.019,-0.051 0.019,-0.081L0.019,-0.195C0.019,-0.24 0.05,-0.278 0.113,-0.308C0.175,-0.338 0.206,-0.359 0.206,-0.371L0.206,-0.455C0.206,-0.464 0.204,-0.471 0.2,-0.476C0.196,-0.481 0.19,-0.483 0.182,-0.483C0.175,-0.483 0.17,-0.481 0.165,-0.476C0.16,-0.471 0.158,-0.464 0.158,-0.455L0.158,-0.343L0.024,-0.343L0.024,-0.456C0.024,-0.498 0.041,-0.529 0.075,-0.548C0.102,-0.563 0.141,-0.571 0.19,-0.571C0.239,-0.571 0.276,-0.563 0.301,-0.546C0.33,-0.527 0.345,-0.495 0.345,-0.451L0.345,0ZM0.206,-0.106L0.206,-0.252C0.187,-0.247 0.175,-0.242 0.168,-0.235C0.161,-0.228 0.158,-0.22 0.158,-0.209L0.158,-0.106C0.158,-0.097 0.16,-0.091 0.165,-0.087C0.169,-0.082 0.175,-0.08 0.183,-0.08C0.19,-0.08 0.195,-0.082 0.2,-0.087C0.204,-0.091 0.206,-0.097 0.206,-0.106Z" style="fill:rgb(60,60,60);fill-rule:nonzero;"/>
            </g>
            <g transform="matrix(246.219,0,0,166.452,502.697,1166.15)">
                <path d="M0.343,-0.071C0.343,-0.049 0.334,-0.03 0.315,-0.015C0.296,0 0.272,0.008 0.242,0.008C0.223,0.008 0.206,0.006 0.191,0.002C0.176,-0.002 0.164,-0.007 0.156,-0.013L0.156,0.12L0.017,0.12L0.017,-0.567L0.122,-0.567L0.134,-0.544C0.143,-0.551 0.152,-0.557 0.159,-0.56C0.174,-0.567 0.192,-0.571 0.215,-0.571C0.255,-0.571 0.287,-0.561 0.311,-0.54C0.332,-0.522 0.343,-0.501 0.343,-0.478L0.343,-0.071ZM0.204,-0.106L0.204,-0.457C0.204,-0.474 0.196,-0.483 0.18,-0.483C0.172,-0.483 0.166,-0.481 0.162,-0.477C0.158,-0.472 0.156,-0.466 0.156,-0.457L0.156,-0.105C0.156,-0.097 0.158,-0.091 0.163,-0.087C0.167,-0.082 0.173,-0.08 0.18,-0.08C0.196,-0.08 0.204,-0.089 0.204,-0.106Z" style="fill:rgb(60,60,60);fill-rule:nonzero;"/>
            </g>
            <g transform="matrix(246.219,0,0,166.452,590.351,1166.15)">
                <path d="M0.343,-0.071C0.343,-0.049 0.334,-0.03 0.315,-0.015C0.296,0 0.272,0.008 0.242,0.008C0.223,0.008 0.206,0.006 0.191,0.002C0.176,-0.002 0.164,-0.007 0.156,-0.013L0.156,0.12L0.017,0.12L0.017,-0.567L0.122,-0.567L0.134,-0.544C0.143,-0.551 0.152,-0.557 0.159,-0.56C0.174,-0.567 0.192,-0.571 0.215,-0.571C0.255,-0.571 0.287,-0.561 0.311,-0.54C0.332,-0.522 0.343,-0.501 0.343,-0.478L0.343,-0.071ZM0.204,-0.106L0.204,-0.457C0.204,-0.474 0.196,-0.483 0.18,-0.483C0.172,-0.483 0.166,-0.481 0.162,-0.477C0.158,-0.472 0.156,-0.466 0.156,-0.457L0.156,-0.105C0.156,-0.097 0.158,-0.091 0.163,-0.087C0.167,-0.082 0.173,-0.08 0.18,-0.08C0.196,-0.08 0.204,-0.089 0.204,-0.106Z" style="fill:rgb(60,60,60);fill-rule:nonzero;"/>
            </g>
            <g transform="matrix(246.219,0,0,166.452,721.832,1166.15)">
                <path d="M0.343,0L0.238,0L0.226,-0.019C0.213,-0.009 0.205,-0.003 0.202,-0.002C0.188,0.005 0.169,0.008 0.145,0.008C0.104,0.008 0.073,-0.001 0.051,-0.02C0.028,-0.039 0.017,-0.06 0.017,-0.085L0.017,-0.492C0.017,-0.514 0.026,-0.533 0.045,-0.548C0.064,-0.563 0.088,-0.571 0.118,-0.571C0.137,-0.571 0.154,-0.569 0.169,-0.565C0.184,-0.561 0.196,-0.556 0.204,-0.55L0.204,-0.7L0.343,-0.7L0.343,0ZM0.204,-0.106L0.204,-0.458C0.204,-0.466 0.202,-0.472 0.198,-0.477C0.193,-0.481 0.187,-0.483 0.18,-0.483C0.164,-0.483 0.156,-0.474 0.156,-0.457L0.156,-0.106C0.156,-0.097 0.158,-0.091 0.162,-0.087C0.166,-0.082 0.172,-0.08 0.18,-0.08C0.188,-0.08 0.194,-0.082 0.198,-0.087C0.202,-0.091 0.204,-0.097 0.204,-0.106Z" style="fill:rgb(60,60,60);fill-rule:nonzero;"/>
            </g>
            <g transform="matrix(246.219,0,0,166.452,809.486,1166.15)">
                <path d="M0.343,-0.107C0.343,-0.065 0.326,-0.034 0.293,-0.015C0.266,0 0.228,0.008 0.179,0.008C0.13,0.008 0.092,0 0.065,-0.017C0.033,-0.037 0.017,-0.069 0.017,-0.112L0.017,-0.451C0.017,-0.494 0.033,-0.525 0.064,-0.545C0.091,-0.562 0.13,-0.571 0.179,-0.571C0.228,-0.571 0.266,-0.563 0.293,-0.548C0.326,-0.529 0.343,-0.499 0.343,-0.456L0.343,-0.24L0.156,-0.24L0.156,-0.108C0.156,-0.099 0.158,-0.092 0.162,-0.087C0.166,-0.082 0.172,-0.079 0.18,-0.079C0.188,-0.079 0.194,-0.082 0.198,-0.087C0.202,-0.092 0.204,-0.099 0.204,-0.108L0.204,-0.222L0.343,-0.222L0.343,-0.107ZM0.204,-0.325L0.204,-0.455C0.204,-0.464 0.202,-0.471 0.198,-0.476C0.194,-0.481 0.188,-0.483 0.18,-0.483C0.173,-0.483 0.168,-0.481 0.163,-0.476C0.158,-0.471 0.156,-0.464 0.156,-0.455L0.156,-0.325L0.204,-0.325Z" style="fill:rgb(60,60,60);fill-rule:nonzero;"/>
            </g>
            <g transform="matrix(246.219,0,0,166.452,897.386,1166.15)">
                <path d="M0.376,-0.567L0.274,0L0.106,0L0.004,-0.567L0.144,-0.567L0.192,-0.232L0.239,-0.567L0.376,-0.567Z" style="fill:rgb(60,60,60);fill-rule:nonzero;"/>
            </g>
            <g transform="matrix(246.219,0,0,166.452,990.703,1166.15)">
                <path d="M0.343,-0.107C0.343,-0.065 0.326,-0.034 0.293,-0.015C0.266,0 0.228,0.008 0.179,0.008C0.13,0.008 0.092,0 0.065,-0.017C0.033,-0.037 0.017,-0.069 0.017,-0.112L0.017,-0.451C0.017,-0.494 0.033,-0.525 0.064,-0.545C0.091,-0.562 0.13,-0.571 0.179,-0.571C0.228,-0.571 0.266,-0.563 0.293,-0.548C0.326,-0.529 0.343,-0.499 0.343,-0.456L0.343,-0.24L0.156,-0.24L0.156,-0.108C0.156,-0.099 0.158,-0.092 0.162,-0.087C0.166,-0.082 0.172,-0.079 0.18,-0.079C0.188,-0.079 0.194,-0.082 0.198,-0.087C0.202,-0.092 0.204,-0.099 0.204,-0.108L0.204,-0.222L0.343,-0.222L0.343,-0.107ZM0.204,-0.325L0.204,-0.455C0.204,-0.464 0.202,-0.471 0.198,-0.476C0.194,-0.481 0.188,-0.483 0.18,-0.483C0.173,-0.483 0.168,-0.481 0.163,-0.476C0.158,-0.471 0.156,-0.464 0.156,-0.455L0.156,-0.325L0.204,-0.325Z" style="fill:rgb(60,60,60);fill-rule:nonzero;"/>
            </g>
            <g transform="matrix(246.219,0,0,166.452,1078.6,1166.15)">
                <rect x="0.018" y="-0.7" width="0.139" height="0.7" style="fill:rgb(60,60,60);fill-rule:nonzero;"/>
            </g>
            <g transform="matrix(246.219,0,0,166.452,1120.95,1166.15)">
                <path d="M0.344,-0.107C0.344,-0.064 0.328,-0.034 0.296,-0.015C0.27,0 0.232,0.008 0.183,0.008C0.133,0.008 0.094,0 0.067,-0.017C0.034,-0.037 0.018,-0.069 0.018,-0.112L0.018,-0.451C0.018,-0.494 0.034,-0.525 0.067,-0.545C0.095,-0.562 0.134,-0.571 0.183,-0.571C0.228,-0.571 0.267,-0.561 0.298,-0.542C0.329,-0.522 0.344,-0.493 0.344,-0.456L0.344,-0.107ZM0.205,-0.108L0.205,-0.455C0.205,-0.464 0.203,-0.471 0.199,-0.476C0.195,-0.481 0.189,-0.483 0.181,-0.483C0.174,-0.483 0.169,-0.481 0.164,-0.476C0.159,-0.471 0.157,-0.464 0.157,-0.455L0.157,-0.108C0.157,-0.099 0.159,-0.092 0.163,-0.087C0.167,-0.082 0.173,-0.079 0.181,-0.079C0.189,-0.079 0.195,-0.082 0.199,-0.087C0.203,-0.092 0.205,-0.099 0.205,-0.108Z" style="fill:rgb(60,60,60);fill-rule:nonzero;"/>
            </g>
            <g transform="matrix(246.219,0,0,166.452,1207.62,1166.15)">
                <path d="M0.343,-0.071C0.343,-0.049 0.334,-0.03 0.315,-0.015C0.296,0 0.272,0.008 0.242,0.008C0.223,0.008 0.206,0.006 0.191,0.002C0.176,-0.002 0.164,-0.007 0.156,-0.013L0.156,0.12L0.017,0.12L0.017,-0.567L0.122,-0.567L0.134,-0.544C0.143,-0.551 0.152,-0.557 0.159,-0.56C0.174,-0.567 0.192,-0.571 0.215,-0.571C0.255,-0.571 0.287,-0.561 0.311,-0.54C0.332,-0.522 0.343,-0.501 0.343,-0.478L0.343,-0.071ZM0.204,-0.106L0.204,-0.457C0.204,-0.474 0.196,-0.483 0.18,-0.483C0.172,-0.483 0.166,-0.481 0.162,-0.477C0.158,-0.472 0.156,-0.466 0.156,-0.457L0.156,-0.105C0.156,-0.097 0.158,-0.091 0.163,-0.087C0.167,-0.082 0.173,-0.08 0.18,-0.08C0.196,-0.08 0.204,-0.089 0.204,-0.106Z" style="fill:rgb(60,60,60);fill-rule:nonzero;"/>
            </g>
            <g transform="matrix(246.219,0,0,166.452,1295.28,1166.15)">
                <path d="M0.53,0L0.391,0L0.391,-0.453C0.391,-0.47 0.383,-0.479 0.367,-0.479C0.359,-0.479 0.353,-0.477 0.349,-0.473C0.345,-0.469 0.343,-0.463 0.343,-0.454L0.343,0L0.204,0L0.204,-0.454C0.204,-0.471 0.196,-0.48 0.18,-0.48C0.172,-0.48 0.166,-0.478 0.162,-0.474C0.158,-0.47 0.156,-0.464 0.156,-0.455L0.156,0L0.017,0L0.017,-0.567L0.156,-0.567L0.156,-0.547C0.164,-0.554 0.176,-0.559 0.192,-0.564C0.207,-0.569 0.224,-0.571 0.242,-0.571C0.268,-0.571 0.286,-0.568 0.297,-0.561C0.31,-0.55 0.321,-0.54 0.33,-0.532C0.336,-0.539 0.349,-0.548 0.37,-0.557C0.39,-0.566 0.41,-0.571 0.43,-0.571C0.459,-0.571 0.483,-0.563 0.502,-0.547C0.521,-0.53 0.53,-0.511 0.53,-0.489L0.53,0Z" style="fill:rgb(60,60,60);fill-rule:nonzero;"/>
            </g>
            <g transform="matrix(246.219,0,0,166.452,1429.71,1166.15)">
                <path d="M0.343,-0.107C0.343,-0.065 0.326,-0.034 0.293,-0.015C0.266,0 0.228,0.008 0.179,0.008C0.13,0.008 0.092,0 0.065,-0.017C0.033,-0.037 0.017,-0.069 0.017,-0.112L0.017,-0.451C0.017,-0.494 0.033,-0.525 0.064,-0.545C0.091,-0.562 0.13,-0.571 0.179,-0.571C0.228,-0.571 0.266,-0.563 0.293,-0.548C0.326,-0.529 0.343,-0.499 0.343,-0.456L0.343,-0.24L0.156,-0.24L0.156,-0.108C0.156,-0.099 0.158,-0.092 0.162,-0.087C0.166,-0.082 0.172,-0.079 0.18,-0.079C0.188,-0.079 0.194,-0.082 0.198,-0.087C0.202,-0.092 0.204,-0.099 0.204,-0.108L0.204,-0.222L0.343,-0.222L0.343,-0.107ZM0.204,-0.325L0.204,-0.455C0.204,-0.464 0.202,-0.471 0.198,-0.476C0.194,-0.481 0.188,-0.483 0.18,-0.483C0.173,-0.483 0.168,-0.481 0.163,-0.476C0.158,-0.471 0.156,-0.464 0.156,-0.455L0.156,-0.325L0.204,-0.325Z" style="fill:rgb(60,60,60);fill-rule:nonzero;"/>
            </g>
            <g transform="matrix(246.219,0,0,166.452,1517.61,1166.15)">
                <path d="M0.344,0L0.205,0L0.205,-0.455C0.205,-0.472 0.197,-0.481 0.181,-0.481C0.173,-0.481 0.167,-0.479 0.163,-0.475C0.159,-0.471 0.157,-0.465 0.157,-0.456L0.157,0L0.018,0L0.018,-0.567L0.157,-0.567L0.157,-0.548C0.165,-0.555 0.177,-0.56 0.192,-0.565C0.206,-0.569 0.224,-0.571 0.243,-0.571C0.272,-0.571 0.297,-0.563 0.316,-0.548C0.335,-0.532 0.344,-0.513 0.344,-0.49L0.344,0Z" style="fill:rgb(60,60,60);fill-rule:nonzero;"/>
            </g>
            <g transform="matrix(246.219,0,0,166.452,1605.26,1166.15)">
                <path d="M0.291,0L0.203,0C0.143,0 0.106,-0.008 0.093,-0.025C0.079,-0.041 0.072,-0.078 0.072,-0.137L0.072,-0.483L0.01,-0.483L0.01,-0.567L0.072,-0.567L0.072,-0.681L0.211,-0.681L0.211,-0.567L0.286,-0.567L0.286,-0.483L0.211,-0.483L0.211,-0.138C0.211,-0.121 0.217,-0.11 0.228,-0.103C0.236,-0.098 0.248,-0.096 0.265,-0.096L0.291,-0.096L0.291,0Z" style="fill:rgb(60,60,60);fill-rule:nonzero;"/>
            </g>
        </g>
    </g>
</svg>
