<?xml version="1.0" encoding="UTF-8" standalone="no"?><!DOCTYPE svg PUBLIC "-//W3C//DTD SVG 1.1//EN" "http://www.w3.org/Graphics/SVG/1.1/DTD/svg11.dtd"><svg width="100%" height="100%" viewBox="0 0 260 101" version="1.1" xmlns="http://www.w3.org/2000/svg" xmlns:xlink="http://www.w3.org/1999/xlink" xml:space="preserve" xmlns:serif="http://www.serif.com/" style="fill-rule:evenodd;clip-rule:evenodd;stroke-linejoin:round;stroke-miterlimit:2;"><rect id="Artboard2" x="0" y="0" width="260" height="100.074" style="fill:none;"/><g><path d="M27.973,64.674c0,2.791 -0.986,5.242 -2.957,7.351c-2.168,2.329 -5.1,3.757 -8.796,4.282l-14.339,2.037l0,-50.539l14.265,-2.026c3.696,-0.525 6.628,0.045 8.796,1.71c2.021,1.542 3.031,3.733 3.031,6.573l0,30.612Zm-11.457,2.421l0,-32.2c0,-1.203 -0.37,-1.945 -1.109,-2.225c-0.394,-0.136 -1.109,-0.131 -2.143,0.016l0,37.543c1.133,-0.161 1.848,-0.335 2.143,-0.521c0.739,-0.49 1.109,-1.361 1.109,-2.613Z" style="fill-rule:nonzero;"/><path d="M54.866,71.157l-22.249,3.16l0,-50.538l22.101,-3.139l0,6.497l-10.718,1.523l0,13.645l9.683,-1.375l0,6.136l-9.683,1.376l0,17.761l10.866,-1.544l0,6.498Z" style="fill-rule:nonzero;"/><path d="M88.263,16.214l-6.948,51.526l-16.114,2.289l-6.948,-49.552l11.088,-1.575l3.917,34.749l3.918,-35.862l11.087,-1.575Z" style="fill-rule:nonzero;"/><path d="M114.491,63.367l-22.249,3.161l0,-50.539l22.101,-3.139l0,6.497l-10.718,1.523l0,13.645l9.683,-1.375l0,6.137l-9.683,1.375l0,17.761l10.866,-1.544l0,6.498Z" style="fill-rule:nonzero;"/><path d="M144.932,49.42c0,2.791 -0.986,5.242 -2.957,7.351c-2.168,2.329 -5.1,3.756 -8.796,4.281l-14.34,2.037l0,-50.538l14.266,-2.026c3.696,-0.525 6.628,0.045 8.796,1.71c2.02,1.542 3.031,3.733 3.031,6.573l0,30.612Zm-11.457,2.421l0,-32.2c0,-1.203 -0.37,-1.945 -1.109,-2.225c-0.394,-0.136 -1.109,-0.131 -2.144,0.016l0,37.543c1.134,-0.161 1.848,-0.335 2.144,-0.522c0.739,-0.49 1.109,-1.36 1.109,-2.612Z" style="fill-rule:nonzero;"/><path d="M175.361,46.707c0,2.936 -1.244,5.375 -3.732,7.317c-2.489,1.941 -5.655,3.185 -9.499,3.731c-3.843,0.546 -6.972,0.245 -9.387,-0.904c-2.612,-1.266 -3.917,-3.367 -3.917,-6.303l0,-42.019l11.383,-1.617l0,42.525c0,0.481 0.16,0.831 0.48,1.051c0.32,0.219 0.801,0.283 1.441,0.192c0.641,-0.091 1.109,-0.29 1.405,-0.597c0.296,-0.306 0.443,-0.7 0.443,-1.182l0,-42.524l11.383,-1.617l0,41.947Z" style="fill-rule:nonzero;"/><path d="M206.172,23.682c0,3.08 -0.739,5.315 -2.218,6.705c-1.478,1.389 -2.673,2.305 -3.585,2.747c-0.911,0.442 -3.929,0.979 -9.054,1.611l0,18.627l-11.088,1.575l0,-50.538l11.088,-1.575c4.878,-0.693 8.204,-0.829 9.978,-0.407c3.253,0.741 4.879,3.158 4.879,7.249l0,14.006Zm-11.088,0.636l0,-12.129c0,-1.203 -0.443,-1.934 -1.33,-2.193c-0.493,-0.123 -1.306,-0.104 -2.439,0.057l0,17.472c1.232,-0.175 2.02,-0.359 2.365,-0.552c0.936,-0.518 1.404,-1.403 1.404,-2.655Z" style="fill-rule:nonzero;"/><path d="M208.066,50.38l-4.693,0.667l0,-3.682l4.693,-0.667l0,3.682Z" style="fill-rule:nonzero;"/><path d="M221.232,44.794c0,0.987 -0.493,1.935 -1.478,2.845c-1.134,1.052 -2.6,1.705 -4.398,1.961c-1.922,0.273 -3.474,0.12 -4.657,-0.458c-1.281,-0.636 -1.922,-1.688 -1.922,-3.156l0,-16.281c0,-1.612 0.468,-2.87 1.405,-3.773c1.084,-1.045 2.808,-1.735 5.174,-2.071c2.045,-0.29 3.572,-0.062 4.583,0.685c0.862,0.647 1.293,1.633 1.293,2.957l0,4.584l-5.174,0.735l0,-5.018c0,-0.216 -0.062,-0.364 -0.185,-0.443c-0.123,-0.078 -0.32,-0.099 -0.591,-0.06c-0.271,0.038 -0.474,0.115 -0.61,0.231c-0.136,0.115 -0.203,0.282 -0.203,0.498l0,17.544c0,0.193 0.08,0.332 0.24,0.417c0.16,0.086 0.351,0.113 0.573,0.081c0.271,-0.038 0.468,-0.12 0.591,-0.246c0.123,-0.126 0.185,-0.285 0.185,-0.478l0,-6.245l5.174,-0.735l0,6.426Z" style="fill-rule:nonzero;"/><path d="M235.424,42.164c0,1.468 -0.598,2.684 -1.793,3.648c-1.195,0.964 -2.753,1.582 -4.675,1.855c-1.922,0.273 -3.486,0.111 -4.693,-0.488c-1.208,-0.599 -1.811,-1.644 -1.811,-3.136l0,-16.281c0,-1.612 0.468,-2.87 1.404,-3.773c1.06,-1.041 2.772,-1.729 5.137,-2.065c2.168,-0.308 3.782,-0.116 4.842,0.575c1.059,0.692 1.589,1.82 1.589,3.385l0,16.28Zm-5.544,1.076l0,-17.219c0,-0.264 -0.074,-0.446 -0.222,-0.546c-0.147,-0.099 -0.381,-0.126 -0.702,-0.08c-0.32,0.045 -0.56,0.139 -0.72,0.282c-0.161,0.143 -0.241,0.347 -0.241,0.612l0,17.219c0,0.241 0.08,0.416 0.241,0.526c0.16,0.109 0.4,0.141 0.72,0.096c0.321,-0.046 0.555,-0.145 0.702,-0.298c0.148,-0.154 0.222,-0.351 0.222,-0.592Z" style="fill-rule:nonzero;"/><path d="M256.379,43.483l-5.063,0.719l0,-14.186l-2.957,14.606l-3.917,0.557l-3.4,-13.704l0,14.187l-4.435,0.63l0,-25.269l7.317,-1.04l2.587,12.737l2.255,-13.425l7.613,-1.081l0,25.269Z" style="fill-rule:nonzero;"/></g><g><path d="M14.776,94.679l-4.865,0.647l0,-0.472c-0.264,0.307 -0.666,0.536 -1.207,0.687c-0.54,0.15 -1.312,0.292 -2.314,0.425c-1.635,0.218 -2.795,0.215 -3.481,-0.009c-0.686,-0.224 -1.028,-0.658 -1.028,-1.303l0,-2.448c0,-0.974 1.232,-1.947 3.698,-2.919c2.466,-0.972 3.699,-1.587 3.699,-1.845l0,-1.804c0,-0.201 -0.079,-0.341 -0.237,-0.42c-0.159,-0.079 -0.396,-0.098 -0.713,-0.056c-0.263,0.035 -0.487,0.115 -0.672,0.24c-0.185,0.125 -0.277,0.288 -0.277,0.488l0,2.406l-5.301,0.705l0,-2.428c0,-0.902 0.673,-1.65 2.018,-2.244c1.081,-0.473 2.597,-0.839 4.549,-1.099c1.951,-0.259 3.415,-0.275 4.391,-0.047c1.16,0.261 1.74,0.864 1.74,1.809l0,9.687Zm-5.498,-1.545l0,-3.136c-0.739,0.198 -1.24,0.387 -1.503,0.565c-0.264,0.178 -0.396,0.382 -0.396,0.611l0,2.212c0,0.186 0.086,0.315 0.257,0.385c0.172,0.07 0.416,0.084 0.732,0.042c0.264,-0.035 0.481,-0.11 0.653,-0.226c0.171,-0.116 0.257,-0.267 0.257,-0.453Z" style="fill:#666;fill-rule:nonzero;"/><path d="M28.978,91.266c0,0.473 -0.37,0.923 -1.108,1.35c-0.738,0.428 -1.701,0.72 -2.888,0.878c-0.738,0.098 -1.411,0.145 -2.017,0.14c-0.607,-0.006 -1.068,-0.052 -1.385,-0.138l0,2.856l-5.498,0.731l0,-14.756l4.153,-0.552l0.475,0.431c0.369,-0.207 0.699,-0.365 0.989,-0.475c0.58,-0.235 1.319,-0.412 2.215,-0.531c1.583,-0.211 2.848,-0.157 3.798,0.161c0.844,0.274 1.266,0.662 1.266,1.163l0,8.742Zm-5.499,-0.021l0,-7.539c0,-0.372 -0.316,-0.516 -0.949,-0.432c-0.317,0.042 -0.554,0.12 -0.712,0.234c-0.159,0.114 -0.238,0.265 -0.238,0.451l0,7.56c0,0.172 0.086,0.293 0.257,0.364c0.172,0.07 0.403,0.086 0.693,0.047c0.633,-0.084 0.949,-0.312 0.949,-0.685Z" style="fill:#666;fill-rule:nonzero;"/><path d="M43.06,89.394c0,0.472 -0.369,0.922 -1.107,1.35c-0.739,0.427 -1.701,0.72 -2.888,0.878c-0.739,0.098 -1.411,0.144 -2.018,0.139c-0.606,-0.005 -1.068,-0.051 -1.384,-0.138l0,2.857l-5.499,0.731l0,-14.756l4.154,-0.553l0.475,0.431c0.369,-0.206 0.698,-0.365 0.989,-0.475c0.58,-0.235 1.318,-0.412 2.215,-0.531c1.582,-0.21 2.848,-0.157 3.797,0.161c0.844,0.274 1.266,0.662 1.266,1.163l0,8.743Zm-5.498,-0.021l0,-7.539c0,-0.373 -0.317,-0.517 -0.95,-0.433c-0.316,0.043 -0.554,0.121 -0.712,0.235c-0.158,0.114 -0.237,0.264 -0.237,0.45l0,7.561c0,0.172 0.086,0.293 0.257,0.363c0.171,0.07 0.402,0.086 0.692,0.048c0.633,-0.085 0.95,-0.313 0.95,-0.685Z" style="fill:#666;fill-rule:nonzero;"/><path d="M64.184,88.11l-4.154,0.552l-0.474,-0.345c-0.528,0.285 -0.844,0.449 -0.95,0.491c-0.554,0.217 -1.305,0.389 -2.254,0.515c-1.609,0.214 -2.855,0.179 -3.739,-0.104c-0.883,-0.284 -1.325,-0.69 -1.325,-1.22l0,-8.742c0,-0.473 0.369,-0.923 1.108,-1.35c0.738,-0.428 1.701,-0.721 2.887,-0.878c0.739,-0.099 1.411,-0.145 2.018,-0.14c0.606,0.005 1.068,0.051 1.384,0.138l0,-3.222l5.499,-0.731l0,15.036Zm-5.499,-1.546l0,-7.561c0,-0.171 -0.085,-0.293 -0.257,-0.363c-0.171,-0.07 -0.402,-0.086 -0.692,-0.047c-0.633,0.084 -0.949,0.312 -0.949,0.684l0,7.54c0,0.186 0.079,0.315 0.237,0.387c0.158,0.072 0.396,0.087 0.712,0.045c0.316,-0.042 0.554,-0.12 0.712,-0.235c0.158,-0.114 0.237,-0.264 0.237,-0.45Z" style="fill:#666;fill-rule:nonzero;"/><path d="M78.266,83.939c0,0.902 -0.659,1.648 -1.977,2.239c-1.055,0.47 -2.558,0.834 -4.51,1.094c-1.952,0.259 -3.455,0.28 -4.51,0.062c-1.265,-0.261 -1.898,-0.857 -1.898,-1.788l0,-7.281c0,-0.917 0.619,-1.672 1.859,-2.267c1.081,-0.516 2.597,-0.903 4.549,-1.163c1.925,-0.256 3.428,-0.291 4.51,-0.105c1.318,0.225 1.977,0.796 1.977,1.713l0,4.639l-7.397,0.984l0,2.835c0,0.2 0.079,0.344 0.238,0.43c0.158,0.087 0.395,0.109 0.712,0.067c0.316,-0.042 0.553,-0.128 0.712,-0.256c0.158,-0.129 0.237,-0.293 0.237,-0.493l0,-2.449l5.498,-0.731l0,2.47Zm-5.498,-3.951l0,-2.793c0,-0.2 -0.079,-0.34 -0.237,-0.419c-0.159,-0.079 -0.396,-0.098 -0.712,-0.056c-0.264,0.035 -0.488,0.115 -0.673,0.24c-0.185,0.125 -0.277,0.287 -0.277,0.488l0,2.792l1.899,-0.252Z" style="fill:#666;fill-rule:nonzero;"/><path d="M93.694,72.007l-4.035,12.715l-6.646,0.884l-4.034,-11.642l5.538,-0.737l1.898,6.943l1.86,-7.442l5.419,-0.721Z" style="fill:#666;fill-rule:nonzero;"/><path d="M107.381,80.067c0,0.903 -0.659,1.649 -1.978,2.24c-1.055,0.469 -2.558,0.834 -4.51,1.093c-1.951,0.26 -3.454,0.281 -4.509,0.063c-1.266,-0.261 -1.899,-0.857 -1.899,-1.788l0,-7.282c0,-0.916 0.62,-1.671 1.859,-2.266c1.082,-0.516 2.598,-0.904 4.549,-1.163c1.926,-0.256 3.429,-0.291 4.51,-0.106c1.319,0.226 1.978,0.797 1.978,1.713l0,4.64l-7.397,0.983l0,2.836c0,0.2 0.079,0.344 0.237,0.43c0.158,0.086 0.396,0.108 0.712,0.066c0.316,-0.042 0.554,-0.127 0.712,-0.255c0.158,-0.129 0.237,-0.293 0.237,-0.494l0,-2.448l5.499,-0.732l0,2.47Zm-5.499,-3.951l0,-2.792c0,-0.201 -0.079,-0.34 -0.237,-0.42c-0.158,-0.079 -0.396,-0.097 -0.712,-0.055c-0.264,0.035 -0.488,0.115 -0.672,0.239c-0.185,0.125 -0.277,0.288 -0.277,0.488l0,2.793l1.898,-0.253Z" style="fill:#666;fill-rule:nonzero;"/><path d="M114.145,81.466l-5.498,0.731l0,-15.035l5.498,-0.731l0,15.035Z" style="fill:#666;fill-rule:nonzero;"/><path d="M128.347,77.28c0,0.916 -0.633,1.659 -1.899,2.228c-1.029,0.466 -2.519,0.829 -4.47,1.089c-1.978,0.263 -3.508,0.287 -4.589,0.073c-1.292,-0.258 -1.938,-0.852 -1.938,-1.783l0,-7.281c0,-0.917 0.646,-1.676 1.938,-2.277c1.108,-0.52 2.637,-0.909 4.589,-1.169c1.793,-0.238 3.303,-0.228 4.529,0.032c1.226,0.259 1.84,0.79 1.84,1.591l0,7.497Zm-5.499,0.709l0,-7.453c0,-0.2 -0.079,-0.34 -0.237,-0.419c-0.159,-0.08 -0.396,-0.098 -0.712,-0.056c-0.264,0.035 -0.488,0.115 -0.673,0.24c-0.184,0.124 -0.277,0.287 -0.277,0.488l0,7.453c0,0.2 0.079,0.344 0.238,0.43c0.158,0.086 0.395,0.109 0.712,0.066c0.316,-0.042 0.553,-0.127 0.712,-0.255c0.158,-0.129 0.237,-0.293 0.237,-0.494Z" style="fill:#666;fill-rule:nonzero;"/><path d="M142.231,76.207c0,0.472 -0.369,0.922 -1.107,1.35c-0.739,0.427 -1.701,0.72 -2.888,0.878c-0.738,0.098 -1.411,0.144 -2.018,0.139c-0.606,-0.005 -1.068,-0.051 -1.384,-0.138l0,2.857l-5.499,0.731l0,-14.756l4.154,-0.553l0.475,0.431c0.369,-0.206 0.699,-0.365 0.989,-0.475c0.58,-0.235 1.318,-0.411 2.215,-0.531c1.582,-0.21 2.848,-0.156 3.797,0.161c0.844,0.275 1.266,0.662 1.266,1.164l0,8.742Zm-5.498,-0.021l0,-7.539c0,-0.373 -0.317,-0.517 -0.95,-0.432c-0.316,0.042 -0.553,0.12 -0.712,0.234c-0.158,0.114 -0.237,0.264 -0.237,0.45l0,7.561c0,0.172 0.086,0.293 0.257,0.363c0.172,0.07 0.402,0.086 0.692,0.048c0.633,-0.084 0.95,-0.313 0.95,-0.685Z" style="fill:#666;fill-rule:nonzero;"/><path d="M163.711,74.875l-5.498,0.732l0,-9.73c0,-0.373 -0.317,-0.517 -0.95,-0.433c-0.316,0.042 -0.554,0.117 -0.712,0.224c-0.158,0.107 -0.237,0.253 -0.237,0.44l0,9.751l-5.499,0.731l0,-9.751c0,-0.373 -0.316,-0.517 -0.949,-0.433c-0.317,0.043 -0.554,0.117 -0.712,0.224c-0.158,0.107 -0.237,0.254 -0.237,0.44l0,9.773l-5.499,0.731l0,-12.179l5.499,-0.731l0,0.43c0.316,-0.186 0.784,-0.37 1.404,-0.552c0.62,-0.183 1.285,-0.322 1.997,-0.416c1.029,-0.137 1.754,-0.162 2.176,-0.075c0.501,0.177 0.936,0.327 1.306,0.45c0.237,-0.19 0.758,-0.438 1.562,-0.745c0.804,-0.308 1.602,-0.514 2.393,-0.619c1.134,-0.151 2.077,-0.101 2.829,0.15c0.751,0.251 1.127,0.613 1.127,1.085l0,10.503Z" style="fill:#666;fill-rule:nonzero;"/><path d="M177.912,70.689c0,0.902 -0.659,1.648 -1.978,2.239c-1.054,0.47 -2.558,0.834 -4.509,1.094c-1.952,0.259 -3.455,0.28 -4.51,0.062c-1.266,-0.261 -1.899,-0.857 -1.899,-1.788l0,-7.281c0,-0.917 0.62,-1.672 1.86,-2.267c1.081,-0.516 2.597,-0.903 4.549,-1.163c1.925,-0.256 3.428,-0.291 4.509,-0.105c1.319,0.225 1.978,0.796 1.978,1.713l0,4.639l-7.397,0.984l0,2.835c0,0.2 0.079,0.344 0.237,0.43c0.159,0.087 0.396,0.109 0.712,0.067c0.317,-0.042 0.554,-0.128 0.712,-0.256c0.159,-0.129 0.238,-0.293 0.238,-0.493l0,-2.449l5.498,-0.731l0,2.47Zm-5.498,-3.951l0,-2.793c0,-0.2 -0.079,-0.34 -0.238,-0.419c-0.158,-0.079 -0.395,-0.098 -0.712,-0.056c-0.263,0.035 -0.487,0.115 -0.672,0.24c-0.185,0.125 -0.277,0.287 -0.277,0.488l0,2.792l1.899,-0.252Z" style="fill:#666;fill-rule:nonzero;"/><path d="M192.074,71.104l-5.499,0.731l0,-9.773c0,-0.372 -0.316,-0.516 -0.949,-0.432c-0.316,0.042 -0.554,0.117 -0.712,0.223c-0.158,0.107 -0.237,0.254 -0.237,0.44l0,9.795l-5.499,0.731l0,-12.179l5.499,-0.731l0,0.408c0.316,-0.185 0.771,-0.364 1.364,-0.536c0.594,-0.172 1.273,-0.309 2.038,-0.41c1.16,-0.155 2.116,-0.113 2.868,0.123c0.751,0.237 1.127,0.598 1.127,1.085l0,10.525Z" style="fill:#666;fill-rule:nonzero;"/><path d="M204.06,69.51l-3.481,0.463c-2.374,0.316 -3.831,0.334 -4.371,0.055c-0.541,-0.279 -0.811,-1.048 -0.811,-2.308l0,-7.432l-2.453,0.326l0,-1.804l2.453,-0.327l0,-2.448l5.498,-0.731l0,2.448l2.967,-0.394l0,1.804l-2.967,0.395l0,7.41c0,0.358 0.224,0.579 0.673,0.662c0.316,0.058 0.804,0.044 1.463,-0.044l1.029,-0.137l0,2.062Z" style="fill:#666;fill-rule:nonzero;"/></g></svg>